<svg width="21" height="26" viewBox="0 0 21 26" fill="none" xmlns="http://www.w3.org/2000/svg">
<path d="M12.0356 0H2.625C1.18125 0 0 1.17 0 2.6V23.4C0 24.83 1.18125 26 2.625 26H18.375C19.8188 26 21 24.83 21 23.4V8.879C21 8.19 20.7244 7.527 20.2256 7.046L13.8862 0.767C13.4006 0.273 12.7313 0 12.0356 0ZM10.5 10.4C11.9438 10.4 13.125 11.57 13.125 13C13.125 14.43 11.9438 15.6 10.5 15.6C9.05625 15.6 7.875 14.43 7.875 13C7.875 11.57 9.05625 10.4 10.5 10.4ZM15.75 20.8H5.25V20.059C5.25 19.006 5.88 18.07 6.85125 17.654C7.96688 17.173 9.20062 16.9 10.5 16.9C11.7994 16.9 13.0331 17.173 14.1487 17.654C15.12 18.07 15.75 19.006 15.75 20.059V20.8Z" fill="white"/>
</svg>
