<svg width="25" height="23" viewBox="0 0 25 23" fill="none" xmlns="http://www.w3.org/2000/svg">
<path d="M12.1845 0C9.29127 0.000114093 6.49248 0.979245 4.28892 2.7622C2.08537 4.54515 0.620833 7.01557 0.157375 9.73144C-0.306083 12.4473 0.261777 15.2314 1.75935 17.5855C3.25692 19.9396 5.58647 21.7102 8.33119 22.5804C8.94041 22.6818 9.16887 22.3342 9.16887 22.03C9.16887 21.7548 9.15363 20.8424 9.15363 19.8719C6.09227 20.4078 5.30028 19.1623 5.05659 18.5105C4.78618 17.8766 4.35753 17.3148 3.80768 16.8738C3.38122 16.6565 2.772 16.1206 3.79244 16.1061C4.18208 16.1464 4.55579 16.2753 4.8819 16.482C5.20801 16.6888 5.47691 16.9672 5.66581 17.2938C5.83246 17.5785 6.05654 17.8291 6.32522 18.0313C6.5939 18.2335 6.90189 18.3833 7.23155 18.4721C7.56121 18.5609 7.90606 18.587 8.24633 18.5488C8.5866 18.5107 8.91562 18.409 9.21451 18.2497C9.26726 17.6607 9.54332 17.1099 9.9913 16.7C7.28025 16.4103 4.44736 15.4109 4.44736 10.9788C4.43024 9.82725 4.87709 8.71307 5.69627 7.8648C5.32377 6.86393 5.36735 5.76554 5.81812 4.79421C5.81812 4.79421 6.83853 4.49004 9.16884 5.98189C11.1626 5.46044 13.2673 5.46044 15.2611 5.98189C17.5913 4.47557 18.6118 4.79421 18.6118 4.79421C19.0626 5.76553 19.1062 6.86394 18.7337 7.8648C19.5553 8.71162 20.0025 9.82678 19.9826 10.9788C19.9826 15.4254 17.1344 16.4103 14.4234 16.7C14.7142 16.9803 14.9381 17.3168 15.08 17.6866C15.222 18.0565 15.2785 18.4511 15.2458 18.8436C15.2458 20.3934 15.2306 21.639 15.2306 22.0301C15.2306 22.3343 15.4591 22.6963 16.0683 22.5805C18.8082 21.7032 21.131 19.9284 22.6222 17.5731C24.1134 15.2178 24.6759 12.4351 24.2092 9.72188C23.7425 7.00865 22.2771 4.54143 20.0745 2.76065C17.8719 0.979867 15.0755 0.0014309 12.1845 0Z" fill="white"/>
</svg>
