<svg width="12" height="16" viewBox="0 0 12 16" fill="none" xmlns="http://www.w3.org/2000/svg">
<path d="M3.44262 6.38242H4.13115C4.31376 6.38242 4.48888 6.29837 4.61801 6.14875C4.74713 5.99913 4.81967 5.79621 4.81967 5.58462C4.81967 5.37303 4.74713 5.17011 4.61801 5.02049C4.48888 4.87087 4.31376 4.78682 4.13115 4.78682H3.44262C3.26002 4.78682 3.08489 4.87087 2.95576 5.02049C2.82664 5.17011 2.7541 5.37303 2.7541 5.58462C2.7541 5.79621 2.82664 5.99913 2.95576 6.14875C3.08489 6.29837 3.26002 6.38242 3.44262 6.38242ZM3.44262 7.97803C3.26002 7.97803 3.08489 8.06208 2.95576 8.2117C2.82664 8.36132 2.7541 8.56424 2.7541 8.77583C2.7541 8.98742 2.82664 9.19035 2.95576 9.33996C3.08489 9.48958 3.26002 9.57363 3.44262 9.57363H7.57377C7.75638 9.57363 7.93151 9.48958 8.06063 9.33996C8.18975 9.19035 8.26229 8.98742 8.26229 8.77583C8.26229 8.56424 8.18975 8.36132 8.06063 8.2117C7.93151 8.06208 7.75638 7.97803 7.57377 7.97803H3.44262ZM11.0164 5.53675C11.0092 5.46346 10.9954 5.39126 10.9751 5.32135V5.24954C10.942 5.16751 10.8978 5.09211 10.8443 5.02616L6.71311 0.239341C6.6562 0.177285 6.59112 0.126117 6.52033 0.0877582C6.49978 0.0843757 6.47891 0.0843757 6.45836 0.0877582C6.38842 0.0412793 6.31117 0.0114438 6.23115 0H2.06557C1.51775 0 0.992363 0.252162 0.604993 0.701013C0.217622 1.14986 0 1.75864 0 2.39341V13.5626C0 14.1974 0.217622 14.8062 0.604993 15.255C0.992363 15.7039 1.51775 15.9561 2.06557 15.9561H8.95082C9.49864 15.9561 10.024 15.7039 10.4114 15.255C10.7988 14.8062 11.0164 14.1974 11.0164 13.5626V5.58462C11.0164 5.58462 11.0164 5.58462 11.0164 5.53675ZM6.88525 2.72051L8.66852 4.78682H7.57377C7.39116 4.78682 7.21603 4.70276 7.08691 4.55315C6.95779 4.40353 6.88525 4.2006 6.88525 3.98901V2.72051ZM9.63934 13.5626C9.63934 13.7742 9.5668 13.9772 9.43768 14.1268C9.30856 14.2764 9.13343 14.3605 8.95082 14.3605H2.06557C1.88297 14.3605 1.70784 14.2764 1.57871 14.1268C1.44959 13.9772 1.37705 13.7742 1.37705 13.5626V2.39341C1.37705 2.18182 1.44959 1.97889 1.57871 1.82928C1.70784 1.67966 1.88297 1.59561 2.06557 1.59561H5.5082V3.98901C5.5082 4.62379 5.72582 5.23256 6.11319 5.68141C6.50056 6.13026 7.02595 6.38242 7.57377 6.38242H9.63934V13.5626ZM7.57377 11.1692H3.44262C3.26002 11.1692 3.08489 11.2533 2.95576 11.4029C2.82664 11.5525 2.7541 11.7555 2.7541 11.967C2.7541 12.1786 2.82664 12.3816 2.95576 12.5312C3.08489 12.6808 3.26002 12.7648 3.44262 12.7648H7.57377C7.75638 12.7648 7.93151 12.6808 8.06063 12.5312C8.18975 12.3816 8.26229 12.1786 8.26229 11.967C8.26229 11.7555 8.18975 11.5525 8.06063 11.4029C7.93151 11.2533 7.75638 11.1692 7.57377 11.1692Z" fill="white"/>
</svg>
