<svg width="32" height="32" viewBox="0 0 32 32" fill="none" xmlns="http://www.w3.org/2000/svg">
<path d="M14.32 15.6267C14.9467 17.2667 14.88 18.9733 13 19.6533C9.13333 21.08 8.26666 17.3333 8.21333 17.1467L14.32 15.6267ZM7.61333 14.5467L13.3733 13.12C13.12 11.72 13.5067 10.32 13.5067 8.66665C13.5067 6.42665 11.7333 2.03998 8.90666 2.74665C5.67999 3.54665 5.21333 7.13332 5.33333 8.86665C5.49333 10.6 7.51999 14.3067 7.61333 14.5467ZM23.8 26.4667C23.76 26.6667 22.88 30.4 19.0133 28.9867C17.1467 28.2933 17.0667 26.5867 17.6933 24.9467L23.8 26.4667ZM26.6667 18.2C26.8 16.4667 26.3467 12.8667 23.1067 12.0667C20.2933 11.3333 18.52 15.7467 18.52 18C18.52 19.64 18.8933 21.04 18.6667 22.44L24.4 23.8667C24.5067 23.6267 26.52 19.92 26.6667 18.2Z" fill="white"/>
</svg>
